<?xml version="1.0" standalone="no"?>
<!DOCTYPE svg PUBLIC "-//W3C//DTD SVG 20010904//EN"
 "http://www.w3.org/TR/2001/REC-SVG-20010904/DTD/svg10.dtd">
<svg version="1.0" xmlns="http://www.w3.org/2000/svg"
 width="286.000000pt" height="64.000000pt" viewBox="0 0 286.000000 64.000000"
 preserveAspectRatio="xMidYMid meet">
<metadata>
Created by potrace 1.13, written by Peter Selinger 2001-2015
</metadata>
<g transform="translate(0.000000,64.000000) scale(0.100000,-0.100000)"
fill="#000000" stroke="none">
<path d="M0 320 l0 -320 1360 0 1360 0 3 318 2 317 3 -317 2 -318 64 0 65 0 1
320 0 320 -1430 0 -1430 0 0 -320z m1538 283 c2 -9 -8 -13 -32 -13 l-36 0 0
-125 0 -125 175 0 175 0 0 125 0 125 -36 0 c-24 0 -34 4 -32 13 3 8 33 13 91
15 73 2 87 0 87 -13 0 -11 -11 -15 -40 -15 l-40 0 0 -264 0 -265 37 -3 c20 -2
38 -9 41 -15 3 -10 -19 -13 -88 -13 -69 0 -91 3 -88 13 3 6 19 13 36 15 l32 3
0 125 0 124 -175 0 -175 0 0 -124 0 -125 32 -3 c17 -2 33 -9 36 -15 3 -10 -19
-13 -88 -13 -69 0 -91 3 -88 13 3 6 21 13 41 15 l37 3 0 265 0 264 -40 0 c-38
0 -49 8 -33 24 13 12 166 2 171 -11z m652 2 c0 -10 -11 -15 -35 -15 l-35 0 0
-157 0 -156 26 24 c38 36 248 269 252 280 2 5 -13 9 -33 9 -25 0 -35 4 -32 13
2 8 31 12 97 12 66 0 95 -4 98 -12 2 -9 -9 -13 -36 -13 -37 0 -45 -6 -142
-110 l-102 -111 26 -37 c14 -20 63 -89 109 -152 78 -107 86 -115 122 -120 21
-3 40 -11 43 -17 3 -10 -20 -13 -93 -13 -73 0 -96 3 -93 13 3 6 19 14 37 17
l33 5 -97 135 c-54 74 -100 137 -102 140 -3 3 -29 -21 -59 -53 l-54 -58 0 -84
0 -84 32 -3 c17 -2 33 -9 36 -15 3 -10 -19 -13 -88 -13 -69 0 -91 3 -88 13 3
6 21 13 41 15 l37 3 0 265 0 264 -40 0 c-38 0 -49 8 -33 23 3 4 44 7 90 7 67
0 83 -3 83 -15z m-1235 -109 l30 -13 -53 -11 c-71 -16 -146 -55 -296 -156
-130 -88 -187 -112 -286 -122 -87 -10 -226 34 -299 94 l-25 19 60 -9 c74 -11
187 -2 282 23 73 18 127 44 268 128 111 66 231 83 319 47z m235 -70 l45 -16
-51 5 c-108 11 -210 -27 -324 -120 -36 -30 -78 -59 -94 -64 -43 -17 -146 -11
-146 8 0 6 125 89 229 152 30 18 75 39 100 46 57 16 180 10 241 -11z"/>
</g>
</svg>
