<?xml version="1.0" encoding="utf-8"?>
<!-- Generator: Adobe Illustrator 21.0.0, SVG Export Plug-In . SVG Version: 6.00 Build 0)  -->
<svg version="1.1" id="Layer_1" xmlns="http://www.w3.org/2000/svg" xmlns:xlink="http://www.w3.org/1999/xlink" x="0px" y="0px"
	 viewBox="0 0 286 64" style="enable-background:new 0 0 286 64;" xml:space="preserve">
<g transform="translate(0.000000,64.000000) scale(0.100000,-0.100000)">
	<path d="M0,320V0h1360h1360l3,318l2,317l3-317l2-318h64h65l1,320v320H1430H0V320z M1538,603c2-9-8-13-32-13h-36V465V340h175h175
		v125v125h-36c-24,0-34,4-32,13c3,8,33,13,91,15c73,2,87,0,87-13c0-11-11-15-40-15h-40V326V61l37-3c20-2,38-9,41-15
		c3-10-19-13-88-13s-91,3-88,13c3,6,19,13,36,15l32,3v125v124h-175h-175V186V61l32-3c17-2,33-9,36-15c3-10-19-13-88-13s-91,3-88,13
		c3,6,21,13,41,15l37,3v265v264h-40c-38,0-49,8-33,24C1380,626,1533,616,1538,603z M2190,605c0-10-11-15-35-15h-35V433V277l26,24
		c38,36,248,269,252,280c2,5-13,9-33,9c-25,0-35,4-32,13c2,8,31,12,97,12s95-4,98-12c2-9-9-13-36-13c-37,0-45-6-142-110l-102-111
		l26-37c14-20,63-89,109-152c78-107,86-115,122-120c21-3,40-11,43-17c3-10-20-13-93-13s-96,3-93,13c3,6,19,14,37,17l33,5l-97,135
		c-54,74-100,137-102,140c-3,3-29-21-59-53l-54-58v-84V61l32-3c17-2,33-9,36-15c3-10-19-13-88-13s-91,3-88,13c3,6,21,13,41,15l37,3
		v265v264h-40c-38,0-49,8-33,23c3,4,44,7,90,7C2174,620,2190,617,2190,605z M955,496l30-13l-53-11c-71-16-146-55-296-156
		c-130-88-187-112-286-122c-87-10-226,34-299,94l-25,19l60-9c74-11,187-2,282,23c73,18,127,44,268,128C747,515,867,532,955,496z
		 M1190,426l45-16l-51,5c-108,11-210-27-324-120c-36-30-78-59-94-64c-43-17-146-11-146,8c0,6,125,89,229,152c30,18,75,39,100,46
		C1006,453,1129,447,1190,426z"/>
</g>
</svg>
